<?xml version="1.0" standalone="no"?>
<!DOCTYPE svg PUBLIC "-//W3C//DTD SVG 20010904//EN"
 "http://www.w3.org/TR/2001/REC-SVG-20010904/DTD/svg10.dtd">
<svg version="1.0" xmlns="http://www.w3.org/2000/svg"
 width="482.000000pt" height="55.000000pt" viewBox="0 0 482.000000 55.000000"
 preserveAspectRatio="xMidYMid meet">

<g transform="translate(0.000000,55.000000) scale(0.100000,-0.100000)"
fill="#000000" stroke="none">
<path d="M1518 466 c-49 -9 -66 -26 -27 -26 20 0 21 -4 14 -47 -3 -27 -17 -97
-31 -157 -13 -60 -23 -111 -21 -112 2 -2 12 -1 23 2 15 4 26 22 38 63 18 61
67 131 92 131 18 0 17 -11 -1 -80 -18 -66 -19 -120 -4 -120 18 0 79 40 79 52
0 6 -6 5 -15 -2 -28 -23 -30 0 -7 87 15 57 20 89 13 96 -16 16 -66 -10 -106
-54 -41 -46 -42 -40 -15 77 11 48 19 90 18 93 -2 3 -24 2 -50 -3z"/>
<path d="M4313 467 c-42 -10 -59 -27 -27 -27 12 0 14 -9 12 -37 -3 -35 -6 -38
-39 -44 -45 -7 -95 -42 -115 -80 -22 -43 -30 -125 -14 -144 20 -25 39 -18 89
34 l49 50 -8 -36 c-9 -39 -4 -63 13 -63 15 0 77 43 77 54 0 5 -7 3 -15 -4 -9
-7 -19 -10 -22 -6 -6 6 33 218 53 294 7 24 8 24 -53 9z m-30 -134 c10 -16 -27
-105 -59 -141 -42 -49 -60 -36 -44 32 20 90 36 116 69 116 16 0 32 -3 34 -7z"/>
<path d="M740 455 c-15 -18 -6 -45 13 -45 20 0 40 27 33 45 -7 19 -30 19 -46
0z"/>
<path d="M1164 456 c-9 -24 4 -48 23 -44 12 2 18 12 18 28 0 29 -32 41 -41 16z"/>
<path d="M4470 455 c-15 -18 -6 -45 13 -45 20 0 40 27 33 45 -7 19 -30 19 -46
0z"/>
<path d="M60 450 c0 -5 9 -10 20 -10 25 0 25 -4 -1 -153 -22 -132 -24 -137
-45 -137 -8 0 -14 -4 -14 -10 0 -6 30 -10 70 -10 40 0 70 4 70 10 0 6 -9 10
-20 10 -25 0 -25 18 3 170 l22 115 33 3 c43 4 62 -12 62 -53 0 -37 -25 -64
-68 -74 l-29 -6 49 -87 c50 -87 51 -88 89 -88 38 0 52 13 26 23 -12 4 -101
148 -95 151 2 1 20 9 40 19 58 26 66 107 12 127 -34 13 -224 13 -224 0z"/>
<path d="M1860 450 c0 -5 9 -10 19 -10 11 0 22 -4 25 -8 4 -7 -24 -192 -39
-259 -3 -15 -13 -23 -25 -23 -11 0 -20 -4 -20 -10 0 -6 32 -10 75 -10 43 0 75
4 75 10 0 6 -9 10 -20 10 -26 0 -26 21 0 170 11 63 20 116 20 118 0 1 9 2 20
2 11 0 20 5 20 10 0 6 -32 10 -75 10 -43 0 -75 -4 -75 -10z"/>
<path d="M3690 450 c0 -5 9 -10 20 -10 26 0 26 -24 1 -163 -21 -115 -25 -127
-46 -127 -8 0 -17 -4 -20 -10 -4 -6 23 -10 74 -10 47 0 81 4 81 10 0 6 -9 10
-19 10 -11 0 -22 3 -25 8 -4 7 29 229 40 265 3 9 14 17 25 17 10 0 19 5 19 10
0 6 -32 10 -75 10 -43 0 -75 -4 -75 -10z"/>
<path d="M2392 420 c-13 -6 -25 -21 -28 -39 -5 -21 -14 -31 -38 -39 l-31 -10
28 -1 c31 -1 32 -5 12 -86 -28 -118 -17 -141 53 -106 43 22 72 51 36 37 -55
-23 -57 -22 -50 20 25 135 25 134 62 134 19 0 34 5 34 10 0 6 -14 10 -31 10
-28 0 -31 3 -25 24 3 13 9 31 12 40 7 18 0 19 -34 6z"/>
<path d="M3458 418 c-22 -7 -28 -16 -28 -38 0 -23 -5 -29 -32 -35 -33 -8 -33
-8 -7 -14 l26 -6 -13 -60 c-27 -127 -28 -134 -9 -141 19 -8 105 32 105 48 0 5
-9 4 -19 -2 -45 -23 -49 -10 -29 96 11 63 12 64 44 64 18 0 36 5 39 10 4 6 -8
10 -29 10 l-34 0 10 36 c5 20 8 37 6 39 -2 1 -15 -2 -30 -7z"/>
<path d="M495 350 c-39 -15 -83 -66 -95 -109 -15 -57 -10 -115 11 -119 21 -4
69 37 93 79 l18 34 -32 -37 c-43 -52 -54 -49 -47 13 9 70 36 123 66 127 34 5
42 -9 30 -48 -6 -19 -12 -45 -14 -57 -2 -13 -6 -40 -10 -62 -4 -24 -2 -41 4
-46 12 -7 91 34 91 47 0 4 -9 3 -20 -4 -10 -7 -21 -10 -24 -8 -2 3 6 48 18
100 l22 95 -45 2 c-25 1 -55 -2 -66 -7z"/>
<path d="M692 333 c-43 -26 -53 -45 -12 -23 12 6 24 10 26 7 3 -3 -22 -144
-41 -224 l-5 -23 -320 0 c-278 0 -320 -2 -320 -15 0 -13 42 -15 316 -15 216 0
313 -3 309 -10 -4 -6 -15 -8 -26 -5 -13 4 -19 2 -19 -9 0 -22 22 -20 53 4 25
20 40 20 2081 20 1821 0 2056 2 2056 15 0 13 -234 15 -2046 15 l-2046 0 6 22
c26 86 64 253 60 260 -8 13 -26 9 -72 -19z"/>
<path d="M843 337 c-18 -12 -33 -26 -33 -31 0 -6 5 -5 12 2 34 34 36 -3 8
-107 -12 -40 -19 -75 -17 -77 2 -3 14 -1 27 4 27 10 48 73 56 170 6 70 0 75
-53 39z"/>
<path d="M985 348 c-27 -15 -85 -70 -85 -81 0 -5 13 5 29 22 16 17 35 31 41
31 13 0 12 -8 -13 -116 -19 -81 -10 -96 40 -68 20 12 39 28 42 35 4 12 2 12
-13 0 -28 -23 -30 -5 -9 81 26 106 20 125 -32 96z"/>
<path d="M1128 340 c-20 -11 -40 -25 -44 -31 -4 -8 1 -7 16 1 12 6 25 9 28 5
3 -3 -2 -36 -11 -73 -20 -79 -22 -122 -4 -122 13 0 87 47 87 56 0 2 -9 0 -21
-6 -11 -7 -23 -9 -26 -6 -3 3 4 44 17 90 20 76 21 107 2 106 -4 -1 -24 -10
-44 -20z"/>
<path d="M1302 340 c-70 -43 -62 -109 15 -127 40 -9 54 -33 33 -58 -19 -22
-58 -18 -85 9 l-23 24 -7 -25 c-7 -31 -6 -32 37 -40 46 -7 104 21 124 59 14
26 14 32 0 53 -8 13 -31 27 -53 32 -31 7 -39 14 -41 36 -2 18 2 29 12 33 26
10 68 -5 73 -26 7 -26 23 -15 23 15 0 40 -55 47 -108 15z"/>
<path d="M2057 335 c-39 -27 -51 -43 -18 -26 34 19 35 -6 5 -113 -19 -67 -18
-74 9 -69 18 4 26 17 40 64 18 62 75 138 94 126 7 -4 3 -35 -10 -92 -24 -98
-18 -117 30 -92 16 9 36 23 44 33 13 16 12 16 -8 5 -21 -11 -23 -9 -23 11 0
13 8 53 17 90 27 106 -5 117 -90 31 l-47 -46 10 34 c22 75 9 85 -53 44z"/>
<path d="M2554 335 c-48 -29 -74 -81 -74 -150 0 -46 16 -65 56 -65 22 0 104
41 104 52 0 5 -14 1 -31 -7 -48 -25 -73 -17 -77 25 -3 34 -1 36 40 47 52 14
88 46 88 76 0 52 -43 60 -106 22z m61 -6 c17 -27 -35 -89 -75 -89 -12 0 17 82
33 92 17 11 35 10 42 -3z"/>
<path d="M2727 335 c-39 -27 -50 -43 -18 -25 11 5 22 6 25 2 4 -8 -10 -90 -29
-166 -7 -26 -6 -28 16 -21 28 9 39 22 39 48 0 10 10 41 21 68 16 37 28 51 48
54 14 3 39 10 55 15 16 5 32 7 35 4 3 -3 -5 -44 -17 -92 -12 -48 -22 -90 -22
-93 0 -3 11 -4 24 -2 19 4 27 17 41 63 19 62 66 130 91 130 18 0 18 0 -6 -90
-24 -90 -24 -99 -6 -106 16 -6 86 35 86 50 0 6 -5 5 -12 -2 -31 -31 -37 4 -13
82 17 57 19 106 5 106 -22 0 -68 -30 -99 -65 l-32 -37 7 51 c8 60 -2 64 -59
26 l-37 -26 0 26 c0 41 -30 28 -68 -30 -28 -42 -32 -45 -26 -20 19 75 7 87
-49 50z"/>
<path d="M3228 339 c-45 -23 -63 -48 -79 -112 -14 -59 -2 -93 36 -103 28 -7
96 18 118 44 10 12 6 12 -20 -1 -43 -23 -70 -21 -83 3 -17 32 -4 57 35 64 44
9 95 51 95 80 0 48 -40 58 -102 25z m55 -13 c8 -20 -15 -59 -45 -75 -38 -22
-43 -10 -19 43 20 46 52 63 64 32z"/>
<path d="M3888 338 c-21 -12 -38 -26 -38 -32 0 -6 5 -5 12 2 33 33 37 -9 9
-116 -17 -63 -17 -73 -4 -68 8 3 21 6 29 6 8 0 14 10 14 23 0 55 86 184 108
163 3 -4 -2 -39 -11 -79 -29 -124 -22 -138 46 -92 40 28 50 43 16 25 -11 -7
-23 -9 -26 -7 -2 3 5 44 18 92 16 65 19 89 10 98 -16 16 -74 -17 -113 -63
l-29 -35 7 30 c19 74 8 85 -48 53z"/>
<path d="M4433 338 c-24 -12 -43 -26 -43 -30 0 -5 9 -4 21 2 11 7 23 9 26 6 3
-3 -1 -34 -10 -68 -24 -92 -25 -128 -4 -128 17 0 90 50 83 57 -3 3 -12 0 -21
-7 -28 -23 -30 0 -7 86 21 79 22 104 4 104 -4 0 -26 -10 -49 -22z"/>
<path d="M4655 350 c-39 -15 -83 -66 -95 -109 -15 -57 -10 -115 11 -119 21 -4
69 37 93 79 l18 34 -32 -37 c-43 -52 -54 -49 -47 13 9 70 36 123 66 127 34 5
42 -9 30 -48 -6 -19 -12 -45 -14 -57 -2 -13 -6 -40 -10 -62 -4 -24 -2 -41 4
-46 12 -7 91 34 91 47 0 4 -9 3 -20 -4 -10 -7 -21 -10 -24 -8 -2 3 6 48 18
100 l22 95 -45 2 c-25 1 -55 -2 -66 -7z"/>
</g>
</svg>
